<?xml version="1.0" encoding="UTF-8" standalone="no"?>
<!-- Created with Inkscape (http://www.inkscape.org/) -->

<svg
   xmlns:dc="http://purl.org/dc/elements/1.1/"
   xmlns:cc="http://creativecommons.org/ns#"
   xmlns:rdf="http://www.w3.org/1999/02/22-rdf-syntax-ns#"
   xmlns:svg="http://www.w3.org/2000/svg"
   xmlns="http://www.w3.org/2000/svg"
   xmlns:sodipodi="http://sodipodi.sourceforge.net/DTD/sodipodi-0.dtd"
   xmlns:inkscape="http://www.inkscape.org/namespaces/inkscape"
   width="100"
   height="120.042"
   viewBox="0 0 100 120.042"
   id="svg4278"
   version="1.1"
   inkscape:version="0.91 r13725"
   sodipodi:docname="shield.svg">
  <defs
     id="defs4280">
    <inkscape:path-effect
       effect="bend_path"
       id="path-effect4258-5"
       is_visible="true"
       bendpath="m 0,992.34109 100,0"
       prop_scale="1"
       scale_y_rel="false"
       vertical="false" />
    <inkscape:path-effect
       effect="bend_path"
       id="path-effect4258"
       is_visible="true"
       bendpath="m 0,992.34109 100,0"
       prop_scale="1"
       scale_y_rel="false"
       vertical="false" />
  </defs>
  <sodipodi:namedview
     id="base"
     pagecolor="#ffffff"
     bordercolor="#666666"
     borderopacity="1.0"
     inkscape:pageopacity="0.0"
     inkscape:pageshadow="2"
     inkscape:zoom="3.959798"
     inkscape:cx="-54.417981"
     inkscape:cy="37.414666"
     inkscape:document-units="px"
     inkscape:current-layer="layer1"
     showgrid="false"
     units="px"
     inkscape:window-width="1920"
     inkscape:window-height="976"
     inkscape:window-x="-8"
     inkscape:window-y="-8"
     inkscape:window-maximized="1" />
  <metadata
     id="metadata4283">
    <rdf:RDF>
      <cc:Work
         rdf:about="">
        <dc:format>image/svg+xml</dc:format>
        <dc:type
           rdf:resource="http://purl.org/dc/dcmitype/StillImage" />
        <dc:title />
      </cc:Work>
    </rdf:RDF>
  </metadata>
  <g
     inkscape:label="Layer 1"
     inkscape:groupmode="layer"
     id="layer1"
     transform="translate(0,-932.32009)">
    <path
       style="fill:#ffffff;fill-opacity:1;stroke:#ffffff;stroke-opacity:1"
       d="M 5 0.021484375 C 3.64583 0.021484375 2.473965 0.51626937 1.484375 1.5058594 C 0.494795 2.4954494 0 3.6673044 0 5.0214844 L 0 65.021484 C 0 69.500694 0.8723975 73.940797 2.6171875 78.341797 C 4.3619775 82.742797 6.5234325 86.649147 9.1015625 90.060547 C 11.679692 93.472047 14.752603 96.792284 18.320312 100.02148 C 21.888023 103.25068 25.182295 105.93286 28.203125 108.06836 C 31.223955 110.20376 34.375 112.22205 37.65625 114.12305 C 40.9375 116.02415 43.268228 117.31323 44.648438 117.99023 C 46.028648 118.66733 47.13542 119.18823 47.96875 119.55273 C 48.59375 119.86523 49.27083 120.02148 50 120.02148 C 50.72917 120.02148 51.40625 119.86523 52.03125 119.55273 C 52.86458 119.18823 53.971353 118.66733 55.351562 117.99023 C 56.731773 117.31323 59.0625 116.02415 62.34375 114.12305 C 65.625 112.22205 68.776045 110.20376 71.796875 108.06836 C 74.817705 105.93286 78.111977 103.25068 81.679688 100.02148 C 85.247398 96.792284 88.320307 93.472047 90.898438 90.060547 C 93.476558 86.649147 95.638023 82.742797 97.382812 78.341797 C 99.127603 73.940797 100 69.500694 100 65.021484 L 100 5.0214844 C 100 3.6673044 99.505215 2.4954494 98.515625 1.5058594 C 97.526045 0.51626937 96.35417 0.021484375 95 0.021484375 L 5 0.021484375 z M 95.166016 2.203125 C 95.901289 2.203785 96.683573 2.1487013 97.376953 2.4257812 C 97.653896 20.931381 97.278224 39.649355 97.589844 58.234375 C 99.311378 79.106235 85.9424 98.393237 68.869141 108.39844 C 68.869141 108.39844 56.302886 118.00652 50.814453 119.23242 C 32.124848 110.63112 11.817464 92.427828 4.6035156 72.548828 C 0.82207979 49.688718 4.1914557 26.10879 2.9433594 2.96875 C 9.4941468 2.19587 16.371305 2.4464031 23.125 2.4707031 C 47.136783 2.1734331 71.166981 3.140515 95.166016 2.203125 z M 41.363281 5.5878906 C 44.387868 15.055831 48.322513 24.400864 49.310547 34.339844 C 49.891483 46.715554 38.075598 49.942336 29.355469 59.291016 C 19.176507 69.384526 19.058192 79.736681 33.917969 97.738281 C 38.598507 102.31208 43.637831 110.10857 51.900391 109.35938 C 68.23201 101.11698 85.643991 90.121528 92.498047 72.736328 C 96.628424 50.657958 93.027535 27.858481 94.408203 5.5878906 L 44.310547 5.5878906 L 41.363281 5.5878906 z M 50 15.021484 L 85 15.021484 L 85 65.021484 C 85 74.188194 78.880215 83.563184 66.640625 93.146484 C 61.744795 97.000684 56.19792 100.56841 50 103.84961 C 50 103.84961 43.506873 85.585225 43.939453 76.140625 C 44.513183 63.614455 64.020134 52.047108 64.646484 39.523438 C 65.076234 30.930757 50 15.021484 50 15.021484 z "
       id="path4234-4-2"
       transform="translate(0,932.32009)" />
  </g>
</svg>
